<svg width="44" height="44" viewBox="0 0 44 44" fill="none" xmlns="http://www.w3.org/2000/svg">
<path d="M11.2503 36.7811C10.8939 36.7811 10.5521 36.6395 10.3001 36.3875C10.0481 36.1355 9.90654 35.7937 9.90654 35.4373V28.265C9.16935 28.6167 8.35233 28.7674 7.53818 28.7018C6.84883 28.6511 6.17911 28.4491 5.5767 28.1102C4.97428 27.7713 4.45398 27.3037 4.05282 26.7408C3.65166 26.178 3.3795 25.5336 3.25572 24.8535C3.13193 24.1735 3.15957 23.4745 3.33665 22.8064C3.51373 22.1382 3.83591 21.5173 4.28026 20.9879C4.72461 20.4584 5.2802 20.0334 5.90749 19.7431C6.53478 19.4528 7.21835 19.3043 7.90955 19.3082C8.60076 19.3122 9.28259 19.4684 9.90654 19.7658V12.5936C9.90654 12.2372 10.0481 11.8954 10.3001 11.6434C10.5521 11.3914 10.8939 11.2498 11.2503 11.2498H19.0944C18.7428 10.5126 18.5921 9.69559 18.6577 8.88145C18.7084 8.19209 18.9103 7.52237 19.2493 6.91996C19.5882 6.31755 20.0557 5.79724 20.6186 5.39608C21.1815 4.99492 21.8259 4.72276 22.506 4.59898C23.186 4.4752 23.885 4.50283 24.5531 4.67991C25.2212 4.857 25.8421 5.17918 26.3716 5.62352C26.9011 6.06787 27.3261 6.62346 27.6164 7.25075C27.9067 7.87804 28.0552 8.56161 28.0512 9.25282C28.0473 9.94402 27.8911 10.6259 27.5937 11.2498H35.4378C35.7942 11.2498 36.136 11.3914 36.388 11.6434C36.64 11.8954 36.7815 12.2372 36.7815 12.5936V19.7658C36.0443 19.4142 35.2273 19.2635 34.4132 19.3291C33.7238 19.3798 33.0541 19.5817 32.4517 19.9207C31.8493 20.2596 31.329 20.7271 30.9278 21.29C30.5267 21.8529 30.2545 22.4973 30.1307 23.1773C30.0069 23.8574 30.0346 24.5563 30.2117 25.2245C30.3887 25.8926 30.7109 26.5135 31.1553 27.043C31.5996 27.5725 32.1552 27.9975 32.7825 28.2878C33.4098 28.5781 34.0934 28.7266 34.7846 28.7226C35.4758 28.7187 36.1576 28.5625 36.7815 28.265V35.4373C36.7815 35.7937 36.64 36.1355 36.388 36.3875C36.136 36.6395 35.7942 36.7811 35.4378 36.7811H11.2503Z" stroke="white" stroke-width="2" stroke-linecap="round" stroke-linejoin="round"/>
</svg>
