<svg width="44" height="44" viewBox="0 0 44 44" fill="none" xmlns="http://www.w3.org/2000/svg">
<path d="M35.4375 7.21875H8.5625C7.82037 7.21875 7.21875 7.82037 7.21875 8.5625V35.4375C7.21875 36.1796 7.82037 36.7812 8.5625 36.7812H35.4375C36.1796 36.7812 36.7812 36.1796 36.7812 35.4375V8.5625C36.7812 7.82037 36.1796 7.21875 35.4375 7.21875Z" stroke="white" stroke-width="2" stroke-linecap="round" stroke-linejoin="round"/>
<path d="M30.0625 4.53125V9.90625" stroke="white" stroke-width="2" stroke-linecap="round" stroke-linejoin="round"/>
<path d="M13.9375 4.53125V9.90625" stroke="white" stroke-width="2" stroke-linecap="round" stroke-linejoin="round"/>
<path d="M7.21875 15.2812H36.7812" stroke="white" stroke-width="2" stroke-linecap="round" stroke-linejoin="round"/>
<path d="M15.9531 22H20.6562L17.9688 25.3594C18.411 25.3586 18.8467 25.467 19.237 25.675C19.6274 25.883 19.9604 26.1841 20.2065 26.5516C20.4525 26.9191 20.6041 27.3417 20.6477 27.7818C20.6914 28.2219 20.6257 28.666 20.4565 29.0747C20.2874 29.4834 20.02 29.844 19.678 30.1245C19.3361 30.4051 18.9302 30.5969 18.4964 30.683C18.0626 30.7691 17.6142 30.7467 17.191 30.618C16.7679 30.4892 16.3831 30.2581 16.0707 29.9449" stroke="white" stroke-width="2" stroke-linecap="round" stroke-linejoin="round"/>
<path d="M24.6875 24.0156L27.375 22V30.7344" stroke="white" stroke-width="2" stroke-linecap="round" stroke-linejoin="round"/>
</svg>
